<svg width="26px" height="26px" viewBox="0 0 26 26" version="1.1" xmlns="http://www.w3.org/2000/svg" xmlns:xlink="http://www.w3.org/1999/xlink">
    <!-- Generator: Sketch 49.3 (51167) - http://www.bohemiancoding.com/sketch -->
    <desc>Created with Sketch.</desc>
    <defs></defs>
    <g id="About-v1" stroke="none" stroke-width="1" fill="none" fill-rule="evenodd">
        <g id="Desktop-HD" transform="translate(-677.000000, -5661.000000)" fill="#FFFFFF">
            <g id="some/facebook" transform="translate(677.000000, 5661.000000)">
                <g id="flogo-HexRBG-Wht-58">
                    <path d="M24.5631579,0 L1.43684211,0 C0.643296123,-4.85906774e-17 9.71813548e-17,0.643296123 0,1.43684211 L0,24.5631579 C9.71813548e-17,25.3567039 0.643296123,26 1.43684211,26 L13.8894737,26 L13.8894737,15.9649123 L10.4912281,15.9649123 L10.4912281,12.0101754 L13.8712281,12.0101754 L13.8712281,9.12280702 C13.8712281,5.76105263 15.9192982,3.93192982 18.9161404,3.93192982 C19.9341884,3.93495458 20.9513345,3.99281618 21.9631579,4.10526316 L21.9631579,7.61298246 L19.8922807,7.61298246 C18.2638596,7.61298246 17.9491228,8.38385965 17.9491228,9.51964912 L17.9491228,12.0284211 L21.8491228,12.0284211 L21.342807,15.9649123 L17.9491228,15.9649123 L17.9491228,26 L24.5631579,26 C25.3567039,26 26,25.3567039 26,24.5631579 L26,1.43684211 C26,0.643296123 25.3567039,4.85906774e-17 24.5631579,0 Z" id="Shape" fill-rule="nonzero"></path>
                </g>
            </g>
        </g>
    </g>
</svg>
