<svg width="26px" height="26px" viewBox="0 0 26 26" version="1.1" xmlns="http://www.w3.org/2000/svg" xmlns:xlink="http://www.w3.org/1999/xlink">
    <!-- Generator: Sketch 49.3 (51167) - http://www.bohemiancoding.com/sketch -->
    <desc>Created with Sketch.</desc>
    <defs>
        <polygon id="path-1" points="0 0 25.9985556 0 25.9985556 25.9133333 0 25.9133333"></polygon>
    </defs>
    <g id="About-v1" stroke="none" stroke-width="1" fill="none" fill-rule="evenodd">
        <g id="Desktop-HD" transform="translate(-731.000000, -5661.000000)">
            <g id="some/linkedin" transform="translate(731.000000, 5661.000000)">
                <g id="In-White-0p25in-R">
                    <g id="Group-3">
                        <mask id="mask-2" fill="white">
                            <use xlink:href="#path-1"></use>
                        </mask>
                        <g id="Clip-2"></g>
                        <path d="M22.1548889,22.1548889 L18.2996667,22.1548889 L18.2996667,16.12 C18.2996667,14.6813333 18.2736667,12.831 16.2947778,12.831 C14.2898889,12.831 13.9836667,14.3996667 13.9836667,16.0174444 L13.9836667,22.1548889 L10.1313333,22.1548889 L10.1313333,9.74711111 L13.8262222,9.74711111 L13.8262222,11.4428889 L13.8796667,11.4428889 C14.3953333,10.4678889 15.652,9.43944444 17.5283333,9.43944444 C21.4341111,9.43944444 22.1548889,12.0076667 22.1548889,15.3501111 L22.1548889,22.1548889 Z M5.78355556,8.05277778 C4.54422222,8.05277778 3.54466667,7.05033333 3.54466667,5.81533333 C3.54466667,4.58177778 4.54422222,3.57933333 5.78355556,3.57933333 C7.01566667,3.57933333 8.01811111,4.58177778 8.01811111,5.81533333 C8.01811111,7.05033333 7.01566667,8.05277778 5.78355556,8.05277778 Z M3.85088889,22.1548889 L7.71188889,22.1548889 L7.71188889,9.74711111 L3.85088889,9.74711111 L3.85088889,22.1548889 Z M24.0745556,0 L1.91677778,0 C0.859444444,0 0,0.839222222 0,1.87488889 L0,24.1236667 C0,25.1593333 0.859444444,26 1.91677778,26 L24.0745556,26 C25.1347778,26 25.9985556,25.1593333 25.9985556,24.1236667 L25.9985556,1.87488889 C25.9985556,0.839222222 25.1347778,0 24.0745556,0 Z" id="Fill-1" fill="#FFFFFE" mask="url(#mask-2)"></path>
                    </g>
                </g>
            </g>
        </g>
    </g>
</svg>
