<svg width="26px" height="21px" viewBox="0 0 26 21" version="1.1" xmlns="http://www.w3.org/2000/svg" xmlns:xlink="http://www.w3.org/1999/xlink">
    <!-- Generator: Sketch 49.3 (51167) - http://www.bohemiancoding.com/sketch -->
    <desc>Created with Sketch.</desc>
    <defs></defs>
    <g id="About-v1" stroke="none" stroke-width="1" fill="none" fill-rule="evenodd">
        <g id="Desktop-HD" transform="translate(-618.000000, -5663.000000)" fill="#FFFFFF" fill-rule="nonzero">
            <g id="some/twitter" transform="translate(618.000000, 5661.000000)">
                <path d="M8.38140952,22.9790476 C17.7255619,22.9790476 22.836419,15.2428092 22.836419,8.53397818 C22.836419,8.31424367 22.836419,8.09549895 22.8215619,7.87774404 C23.815833,7.15906457 24.6741045,6.26920765 25.3561905,5.24983809 C24.428985,5.66040685 23.4453928,5.92965771 22.4382476,6.04860272 C23.498794,5.41412631 24.2925414,4.41620494 24.6717714,3.24055407 C23.6745179,3.8319124 22.5834971,4.24867226 21.4457905,4.47284895 C19.8710153,2.79949572 17.3687125,2.38993663 15.3420298,3.4738289 C13.315347,4.55772118 12.2683105,6.86550607 12.7880381,9.10311035 C8.70321102,8.89846976 4.89738554,6.97042192 2.31771429,3.7987985 C0.96930254,6.11852652 1.65804514,9.08614475 3.89059048,10.5759254 C3.08210557,10.5519799 2.29124814,10.3340326 1.5847619,9.94047699 C1.5847619,9.96126269 1.5847619,9.98303818 1.5847619,10.0048137 C1.58542367,12.4214904 3.29011576,14.5029722 5.66057143,14.9815033 C4.91263274,15.1853418 4.12788934,15.2151388 3.36662857,15.0686053 C4.032177,17.1367058 5.93946433,18.5534599 8.11299048,18.5942554 C6.31402328,20.0071205 4.09171609,20.7741086 1.80365714,20.7718046 C1.39944734,20.7710291 0.995630693,20.7465722 0.594285714,20.6985597 C2.91758227,22.1884751 5.62086661,22.9787674 8.38140952,22.9750884" id="Shape"></path>
            </g>
        </g>
    </g>
</svg>
