<svg viewBox="0 0 425.2 192.76" xmlns="http://www.w3.org/2000/svg"><g fill="#1d1d1b"><path d="m229.21 71.5h-26.45a1.3 1.3 0 0 0 -1.47 1.5v4.76a1.3 1.3 0 0 0 1.47 1.47h8a.68.68 0 0 1 .77.77v35c0 1 .51 1.47 1.54 1.47h5.88a1.3 1.3 0 0 0 1.46-1.47v-35c0-.51.28-.77.84-.77h8a1.3 1.3 0 0 0 1.47-1.47v-4.76a1.3 1.3 0 0 0 -1.51-1.5z"/><path d="m274 99.22v-.28q6.23-2.59 6.23-10.5v-5.44q0-5.46-3.08-8.47c-2.05-2-4.9-3-8.54-3h-16.61a1.3 1.3 0 0 0 -1.49 1.47v42a1.3 1.3 0 0 0 1.49 1.5h6a1.29 1.29 0 0 0 1.46-1.47v-14.34c0-.52.29-.77.84-.77h4.69l7 15.11a2 2 0 0 0 .91 1.19 4.27 4.27 0 0 0 1.82.28h5.67c1.21 0 1.61-.56 1.19-1.68zm-2.66-10.43a3.9 3.9 0 0 1 -1.05 3 4.81 4.81 0 0 1 -3.29 1h-6.86a.68.68 0 0 1 -.77-.77v-12.02a.68.68 0 0 1 .77-.77h6.86a4.7 4.7 0 0 1 3.29 1 4.13 4.13 0 0 1 1.05 3.15z"/><rect height="45" rx="1.47" width="8.89" x="302.54" y="71.5"/><path d="m357.83 93.41q5.54-1.75 5.53-7.7v-2.87q0-5.46-3-8.4t-8.54-2.94h-16.82a1.3 1.3 0 0 0 -1.45 1.5v42a1.3 1.3 0 0 0 1.45 1.5h17.49q5.46 0 8.47-2.94t3-8.39v-4.17a7.61 7.61 0 0 0 -1.68-5.28 7.3 7.3 0 0 0 -4.45-2.31zm-15.39-13.72a.68.68 0 0 1 .77-.77h7.2a4.69 4.69 0 0 1 3.26 1 4.11 4.11 0 0 1 1 3.11v2.73a4 4 0 0 1 -1.05 3.11 4.81 4.81 0 0 1 -3.29 1h-7.13a.68.68 0 0 1 -.77-.77zm12.94 25.31a4.12 4.12 0 0 1 -1 3.11 4.82 4.82 0 0 1 -3.33.94h-7.83a.68.68 0 0 1 -.77-.77v-10.53a.68.68 0 0 1 .77-.77h7.69a5.18 5.18 0 0 1 3.43.91 3.87 3.87 0 0 1 1.05 3.07z"/><path d="m395 79.2h14.63c.93 0 1.39-.49 1.39-1.47v-4.73c0-1-.46-1.47-1.39-1.47h-22.89a1.3 1.3 0 0 0 -1.47 1.47v42a1.3 1.3 0 0 0 1.47 1.47h22.89c.93 0 1.39-.49 1.39-1.47v-4.76c0-1-.46-1.47-1.39-1.47h-14.63c-.56 0-.84-.25-.84-.77v-9.69c0-.52.28-.77.84-.77h12a1.31 1.31 0 0 0 1.48-1.47v-4.76a1.31 1.31 0 0 0 -1.48-1.47h-12c-.56 0-.84-.26-.84-.77v-9.07c0-.54.28-.8.84-.8z"/><path d="m221.82 126.81h-9.9a.49.49 0 0 0 -.55.56v1.78a.49.49 0 0 0 .55.55h3c.2 0 .29.09.29.28v13.13c0 .37.19.55.58.55h2.21a.48.48 0 0 0 .55-.55v-13.11c0-.19.1-.28.31-.28h3a.49.49 0 0 0 .55-.55v-1.78a.49.49 0 0 0 -.59-.58z"/><path d="m240.85 127.37a.7.7 0 0 0 -.78-.56h-3.49a.75.75 0 0 0 -.78.56l-4.14 15.74c-.11.37 0 .55.31.55h2.52a.52.52 0 0 0 .38-.12.83.83 0 0 0 .17-.43l.73-2.88h5.11l.73 2.88a.94.94 0 0 0 .16.43.52.52 0 0 0 .4.12h2.51c.31 0 .42-.18.31-.55zm-4.45 10.19 1.89-7.58h.1l1.89 7.58z"/><path d="m271.83 126.81h-3.83a.46.46 0 0 0 -.5.37l-2.8 9.25h-.16l-2.77-9.25a.51.51 0 0 0 -.5-.37h-3.91a.49.49 0 0 0 -.55.56v15.74a.49.49 0 0 0 .55.55h2.15a.61.61 0 0 0 .45-.12.66.66 0 0 0 .1-.43v-12.44h.11l2.72 8.8a.65.65 0 0 0 .66.52h2.2a.63.63 0 0 0 .65-.52l2.68-8.78h.1v12.42a.48.48 0 0 0 .55.55h2.15a.48.48 0 0 0 .55-.55v-15.74a.49.49 0 0 0 -.6-.56z"/><path d="m291.7 126.81h-6.39a.49.49 0 0 0 -.55.56v15.74a.48.48 0 0 0 .55.55h2.23a.48.48 0 0 0 .55-.55v-5c0-.19.1-.29.31-.29h3.3a4.35 4.35 0 0 0 3.18-1.11 4.25 4.25 0 0 0 1.12-3.11v-2.51a4.23 4.23 0 0 0 -1.12-3.16 4.36 4.36 0 0 0 -3.18-1.12zm1 6.63a1.65 1.65 0 0 1 -.34 1.17 1.61 1.61 0 0 1 -1.18.35h-2.77c-.2 0-.29-.09-.29-.29v-4.67c0-.19.09-.28.29-.28h2.77a1.61 1.61 0 0 1 1.18.35 1.68 1.68 0 0 1 .34 1.19z"/><path d="m317 126.81h-8.57a.49.49 0 0 0 -.55.56v15.74a.49.49 0 0 0 .55.55h8.57c.35 0 .52-.18.52-.55v-1.78c0-.37-.17-.55-.52-.55h-5.48c-.21 0-.31-.1-.31-.29v-3.64c0-.19.1-.29.31-.29h4.48a.48.48 0 0 0 .55-.55v-1.78a.48.48 0 0 0 -.55-.55h-4.48c-.21 0-.31-.1-.31-.29v-3.39c0-.19.1-.28.31-.28h5.48c.35 0 .52-.19.52-.55v-1.78c.03-.39-.14-.58-.52-.58z"/><path d="m338.4 137.19v-.1a3.84 3.84 0 0 0 2.33-3.93v-2a4.22 4.22 0 0 0 -1.15-3.17 4.4 4.4 0 0 0 -3.2-1.13h-6.24a.49.49 0 0 0 -.55.56v15.74a.49.49 0 0 0 .55.55h2.23a.48.48 0 0 0 .55-.55v-5.37c0-.19.11-.29.32-.29h1.76l2.62 5.66a.79.79 0 0 0 .34.45 1.64 1.64 0 0 0 .68.1h2.13c.45 0 .6-.21.44-.63zm-1-3.9a1.48 1.48 0 0 1 -.39 1.14 1.82 1.82 0 0 1 -1.23.35h-2.57a.26.26 0 0 1 -.29-.29v-4.49c0-.19.1-.28.29-.28h2.57a1.77 1.77 0 0 1 1.23.36 1.57 1.57 0 0 1 .39 1.18z"/><path d="m362.3 126.81h-8.57a.49.49 0 0 0 -.55.56v15.74a.48.48 0 0 0 .55.55h8.57c.35 0 .52-.18.52-.55v-1.78c0-.37-.17-.55-.52-.55h-5.48c-.21 0-.31-.1-.31-.29v-3.64c0-.19.1-.29.31-.29h4.48a.48.48 0 0 0 .55-.55v-1.78a.48.48 0 0 0 -.55-.55h-4.48c-.21 0-.31-.1-.31-.29v-3.39c0-.19.1-.28.31-.28h5.48c.35 0 .52-.19.52-.55v-1.78c0-.39-.17-.58-.52-.58z"/><path d="m28.27 51.46a.21.21 0 0 0 .33-.06l1.29-1.8c.06-.09.13-.11.21-.05l7.37 5.26a.2.2 0 0 0 .32-.05l.42-.6a.2.2 0 0 0 -.05-.32l-7.37-5.26c-.08 0-.09-.13 0-.22l1.29-1.8a.21.21 0 0 0 0-.33l-.48-.34a.2.2 0 0 0 -.32.07l-3.46 4.83c-.09.14-.08.25 0 .33z"/><path d="m41.17 49.82c.09.13.18.15.27 0l.56-.59a.26.26 0 0 0 0-.33l-1.21-2.19 2.7-2.87 2.26 1.16c.13.08.24.08.32 0l.57-.6c.1-.11.08-.19-.06-.27l-9.39-4.64a.28.28 0 0 0 -.37.07l-.81.85a.29.29 0 0 0 0 .39zm-3.84-9.08 5.25 2.64-2.34 2.49-3-5.08z"/><path d="m49 41.81a.2.2 0 0 0 .32 0l.57-.44q.17-.12 0-.3l-5.25-6.9h.05l5.93 3.54a.29.29 0 0 0 .35 0l.62-.48a.3.3 0 0 0 .1-.34l-1.86-6.61h.06l5.23 6.88a.2.2 0 0 0 .32 0l.57-.43a.2.2 0 0 0 0-.32l-6.06-8a.2.2 0 0 0 -.32 0l-1 .8a.17.17 0 0 0 -.08.22l2 7-.06.05-6.21-3.75a.21.21 0 0 0 -.24 0l-1 .8a.2.2 0 0 0 0 .32z"/><path d="m59.7 34.26a.19.19 0 0 0 .3.1l.65-.35a.2.2 0 0 0 .1-.3l-1.63-3.07c0-.08 0-.15.07-.2l2.38-1.26a2.21 2.21 0 0 0 1-3.25l-.85-1.6a2.4 2.4 0 0 0 -1.38-1.26 2.37 2.37 0 0 0 -1.86.25l-3.37 1.79a.21.21 0 0 0 -.09.31zm-3.13-8.76 2.23-1.18a1.24 1.24 0 0 1 1.88.61l.8 1.51a1.23 1.23 0 0 1 -.55 1.88l-2.23 1.18c-.1.05-.17 0-.22-.05l-2-3.74a.14.14 0 0 1 .09-.21z"/><path d="m68.88 29.75a.2.2 0 0 0 .3.13l4.82-1.75a.2.2 0 0 0 .13-.3l-.2-.55a.19.19 0 0 0 -.29-.13l-3.75 1.37c-.1 0-.17 0-.2-.08l-1.19-3.26a.13.13 0 0 1 .1-.19l3.27-1.2a.2.2 0 0 0 .13-.29l-.2-.55a.2.2 0 0 0 -.29-.14l-3.29 1.19c-.1 0-.16 0-.2-.09l-1.13-3.08a.14.14 0 0 1 .1-.2l3.75-1.37a.2.2 0 0 0 .14-.29l-.2-.55a.22.22 0 0 0 -.3-.14l-4.8 1.76a.19.19 0 0 0 -.13.29z"/><path d="m78.16 26.91.72-.16a.19.19 0 0 0 .17-.27l-.8-3.71c0-.09 0-.15.13-.17l2.11-.46 2.61 3.47a.42.42 0 0 0 .44.14l.72-.15c.2-.05.24-.14.1-.29l-2.67-3.47v-.07a2.11 2.11 0 0 0 1-1 2.46 2.46 0 0 0 .11-1.56l-.31-1.45a2.37 2.37 0 0 0 -1-1.59 2.44 2.44 0 0 0 -1.87-.26l-3.62.76a.19.19 0 0 0 -.17.27l2.1 9.79a.2.2 0 0 0 .23.18zm-.88-9.46 2.4-.51a1.24 1.24 0 0 1 1.67 1.06l.3 1.41a1.24 1.24 0 0 1 -1.07 1.67l-2.41.52c-.1 0-.17 0-.18-.11l-.84-3.89c-.02-.06.02-.12.13-.15z"/><path d="m88.36 25.08 5.1-.38a.2.2 0 0 0 .21-.24v-.59a.2.2 0 0 0 -.24-.21l-4 .3c-.11 0-.17 0-.18-.14l-.25-3.46c0-.1 0-.15.15-.16l3.46-.2c.15 0 .22-.09.21-.25v-.58a.2.2 0 0 0 -.24-.21l-3.47.25c-.11 0-.17 0-.18-.13l-.24-3.28c0-.1 0-.15.15-.16l4-.29a.2.2 0 0 0 .21-.24v-.59a.2.2 0 0 0 -.24-.21l-5.1.37c-.15 0-.23.1-.21.25l.73 10a.2.2 0 0 0 .13.15z"/><path d="m110.19 15.45-5-.71a.2.2 0 0 0 -.26.19l-1.41 9.92c0 .15 0 .23.2.25l.72.11a.21.21 0 0 0 .26-.2l.58-4.11a.16.16 0 0 1 .19-.14l3.45.49a.21.21 0 0 0 .26-.19l.08-.58a.21.21 0 0 0 -.2-.26l-3.45-.49a.14.14 0 0 1 -.14-.17l.5-3.51a.14.14 0 0 1 .18-.12l3.91.55a.19.19 0 0 0 .25-.19l.08-.58a.2.2 0 0 0 -.2-.26z"/><path d="m112.79 26.75.72.17a.19.19 0 0 0 .27-.16l2.44-9.71a.21.21 0 0 0 -.17-.28l-.71-.18a.2.2 0 0 0 -.28.17l-2.43 9.71a.2.2 0 0 0 .16.28z"/><path d="m121.9 21.05 1.41 8.9a.44.44 0 0 0 .24.32l.57.21a.19.19 0 0 0 .29-.13l3.59-9.35a.19.19 0 0 0 -.13-.29l-.67-.26a.2.2 0 0 0 -.29.13l-2.78 7.29h-.06l-1.39-9a.25.25 0 0 0 -.2-.21l-.62-.24a.21.21 0 0 0 -.3.13l-3.56 9.35a.21.21 0 0 0 .14.3l.67.25a.2.2 0 0 0 .29-.13l2.74-7.32z"/><path d="m132.92 35a.21.21 0 0 0 .31-.09l.29-.53a.21.21 0 0 0 -.08-.32l-3.6-2a.14.14 0 0 1 -.07-.21l4.35-7.9a.21.21 0 0 0 -.09-.31l-.64-.35a.2.2 0 0 0 -.31.09l-4.83 8.77a.21.21 0 0 0 .09.31z"/><path d="m136 37c.09.07.2.06.33 0l2-1.45 3.17 2.35-.81 2.37a.23.23 0 0 0 0 .31l.67.5c.11.08.19.05.25-.1l3.52-9.85a.29.29 0 0 0 -.11-.37l-.94-.7a.29.29 0 0 0 -.39 0l-8.41 6.23c-.12.09-.13.18 0 .27zm7.88-5.67-2 5.52-2.75-2z"/><path d="m144.24 43.55.51.51a.21.21 0 0 0 .32 0l5.54-5.49-2.41 8.68a.48.48 0 0 0 .09.39l.43.43a.2.2 0 0 0 .32 0l7.12-7a.2.2 0 0 0 0-.32l-.5-.51a.21.21 0 0 0 -.33 0l-5.54 5.49h-.05l2.45-8.75c0-.09 0-.18-.09-.28l-.47-.47a.2.2 0 0 0 -.32 0l-7.12 7a.21.21 0 0 0 .05.32z"/><path d="m151.75 51.66 2.35 3.24a2.22 2.22 0 0 0 3.37.54l4.53-3.31a2.24 2.24 0 0 0 .54-3.37l-2.35-3.24a.2.2 0 0 0 -.32-.05l-8.11 5.87a.2.2 0 0 0 -.01.32zm1.53.08 6.55-4.74c.08-.06.15 0 .22 0l1.6 2.21a1.23 1.23 0 0 1 -.34 1.94l-4.5 3.26a1.23 1.23 0 0 1 -1.95-.28l-1.61-2.13a.14.14 0 0 1 .03-.26z"/><path d="m162.68 71.29.15.41a.21.21 0 0 0 .3.14l9.4-3.43a.2.2 0 0 0 .14-.29l-.15-.42c-.05-.13-.14-.17-.29-.12l-9.4 3.42c-.15.07-.2.16-.15.29z"/><path d="m166.66 87.8.42 5.1a.2.2 0 0 0 .24.21h.58q.24 0 .21-.24l-.32-4c0-.11 0-.17.13-.17l3.46-.29a.14.14 0 0 1 .16.15l.28 3.48a.2.2 0 0 0 .25.2h.58c.16 0 .22-.1.21-.25l-.28-3.47c0-.11 0-.17.13-.17l3.29-.35c.1 0 .15 0 .16.15l.32 4a.2.2 0 0 0 .25.21h.58a.2.2 0 0 0 .21-.24l-.42-5.1a.2.2 0 0 0 -.24-.21l-10 .82a.2.2 0 0 0 -.2.17z"/><path d="m177.39 97.65-10-.63a.2.2 0 0 0 -.24.21v.71c0 .16.06.24.21.25l7.79.49v.06l-8.08 4a.46.46 0 0 0 -.24.33v.6a.2.2 0 0 0 .21.24l10 .63c.16 0 .24-.06.25-.21v-.72a.2.2 0 0 0 -.21-.24l-7.79-.49v-.07l8.16-4a.27.27 0 0 0 .15-.25v-.67a.2.2 0 0 0 -.21-.24z"/><path d="m176.33 109.08-.57-.12c-.15 0-.24 0-.28.2l-.44 2.17a.14.14 0 0 1 -.18.13l-8.86-1.82c-.15 0-.23 0-.27.18l-.14.71a.2.2 0 0 0 .18.27l8.87 1.82c.09 0 .13.08.11.19l-.45 2.17a.21.21 0 0 0 .18.28l.57.12a.2.2 0 0 0 .27-.19l1.2-5.82a.22.22 0 0 0 -.19-.29z"/><path d="m164.37 116.46a.2.2 0 0 0 -.29.14l-.25.69a.2.2 0 0 0 .15.29l3.58 1.25c.09 0 .12.1.08.2l-.71 2-4.32.43a.43.43 0 0 0 -.35.31l-.24.69c-.07.19 0 .27.19.24l4.36-.48h.06a2.14 2.14 0 0 0 .35 1.41 2.41 2.41 0 0 0 1.27.91l1.4.49a2.37 2.37 0 0 0 1.89 0 2.47 2.47 0 0 0 1.19-1.46l1.23-3.54a.2.2 0 0 0 -.14-.29zm8.24 4.31-.81 2.32a1.24 1.24 0 0 1 -1.8.85l-1.37-.47a1.24 1.24 0 0 1 -.86-1.79l.81-2.32c0-.1.1-.14.19-.1l3.75 1.31c.09.03.12.09.09.2z"/><path d="m160.6 126.16a.2.2 0 0 0 -.3.11l-2.3 4.57a.2.2 0 0 0 .11.31l.52.26a.2.2 0 0 0 .3-.1l1.79-3.57c.05-.1.11-.13.2-.08l3.1 1.55q.14.06.06.21l-1.56 3.12a.2.2 0 0 0 .11.3l.52.26a.2.2 0 0 0 .31-.1l1.55-3.12c.06-.09.12-.12.21-.08l2.94 1.47a.14.14 0 0 1 .06.22l-1.78 3.56a.2.2 0 0 0 .1.31l.52.26a.2.2 0 0 0 .31-.1l2.29-4.57a.21.21 0 0 0 -.11-.31z"/><path d="m156.06 134.5a.19.19 0 0 0 -.31.05l-.42.6a.2.2 0 0 0 0 .32l2.84 2a.14.14 0 0 1 0 .22l-1.54 2.2a2.38 2.38 0 0 0 -.49 1.8 2.41 2.41 0 0 0 1.09 1.54l1.48 1a2.4 2.4 0 0 0 1.81.49 2.36 2.36 0 0 0 1.54-1.07l2.18-3.12a.2.2 0 0 0 0-.32zm6.77 6.38-1.45 2.12a1.24 1.24 0 0 1 -1.95.31l-1.4-1a1.23 1.23 0 0 1 -.36-1.93l1.45-2.07a.13.13 0 0 1 .21 0l3.47 2.42a.14.14 0 0 1 .03.15z"/><path d="m150 142.7a.21.21 0 0 0 -.33 0l-.5.53a.2.2 0 0 0 0 .32l2.76 2.61a.14.14 0 0 1 0 .22l-1.51 1.62-4.12-1.38a.43.43 0 0 0 -.44.14l-.51.54c-.14.15-.11.25.08.29l4.18 1.34v.05a2 2 0 0 0 -.27 1.43 2.43 2.43 0 0 0 .8 1.35l1.07 1a2.42 2.42 0 0 0 1.74.74 2.45 2.45 0 0 0 1.68-.85l2.57-2.73a.2.2 0 0 0 0-.32zm5.76 7.29-1.76 1.79a1.25 1.25 0 0 1 -2 .05l-1-1a1.24 1.24 0 0 1 -.06-2l1.69-1.79a.14.14 0 0 1 .22 0l2.89 2.72c.06.08.06.15-.02.24z"/><path d="m142.6 150a.2.2 0 0 0 -.32 0l-4 3.19a.2.2 0 0 0 0 .32l.37.46a.2.2 0 0 0 .32 0l3.11-2.5c.09-.06.16-.06.22 0l2.17 2.71c.06.08.05.15 0 .22l-2.72 2.18a.2.2 0 0 0 0 .32l.36.46a.2.2 0 0 0 .32 0l2.73-2.18a.13.13 0 0 1 .21 0l2.06 2.56c.06.08 0 .15 0 .22l-3.11 2.49a.2.2 0 0 0 0 .32l.37.46a.2.2 0 0 0 .32 0l4-3.2a.2.2 0 0 0 0-.32z"/><path d="m135 155.76a.2.2 0 0 0 -.31-.08l-.62.36a.2.2 0 0 0 -.08.31l3.94 6.73h-.05l-7.82-4.48a.43.43 0 0 0 -.4 0l-.52.3a.2.2 0 0 0 -.09.31l5.07 8.64a.2.2 0 0 0 .31.08l.62-.36a.2.2 0 0 0 .08-.31l-3.94-6.73h.06l7.87 4.54a.24.24 0 0 0 .28 0l.58-.34a.2.2 0 0 0 .08-.31z"/><path d="m125.28 161.06a.21.21 0 0 0 -.3-.13l-4.74 1.93a.2.2 0 0 0 -.12.3l.22.54a.21.21 0 0 0 .3.13l3.69-1.51a.14.14 0 0 1 .21.08l1.3 3.21c0 .09 0 .15-.09.2l-3.23 1.31a.2.2 0 0 0 -.12.3l.22.54a.2.2 0 0 0 .3.12l3.22-1.31a.15.15 0 0 1 .21.07l1.24 3a.15.15 0 0 1 -.1.2l-3.69 1.5a.21.21 0 0 0 -.13.3l.23.54a.19.19 0 0 0 .29.13l4.74-1.93a.2.2 0 0 0 .12-.3z"/><path d="m115.94 164.93a2.34 2.34 0 0 0 -1.86-.18l-1.76.44a2.19 2.19 0 0 0 -1.73 2.92l1.91 7.61a.2.2 0 0 0 .27.15l.71-.18a.19.19 0 0 0 .15-.27l-1.89-7.55a1.23 1.23 0 0 1 1-1.71l1.48-.37a1.23 1.23 0 0 1 1.66 1l1.89 7.55a.21.21 0 0 0 .28.17l.71-.18a.2.2 0 0 0 .17-.28l-1.93-7.55a2.41 2.41 0 0 0 -1.06-1.57z"/><path d="m105.73 166.48-.73.07a.2.2 0 0 0 -.2.25l.38 3.78c0 .1 0 .15-.15.16l-2.14.21-2.2-3.74a.45.45 0 0 0 -.43-.18l-.73.07c-.21 0-.25.11-.14.28l2.27 3.74v.07a2.06 2.06 0 0 0 -1.13.91 2.48 2.48 0 0 0 -.3 1.54l.15 1.48a2.24 2.24 0 0 0 2.66 2.15l3.72-.37a.21.21 0 0 0 .21-.25l-1-10c.03-.12-.08-.18-.24-.17zm-.18 9.49-2.44.25a1.25 1.25 0 0 1 -1.54-1.27l-.14-1.44a1.25 1.25 0 0 1 1.25-1.54l2.45-.24c.11 0 .17 0 .18.13l.39 3.95c.01.1-.04.19-.15.19z"/><path d="m95.26 167.11h-.73a.2.2 0 0 0 -.23.22l-.13 10c0 .16.07.23.22.23h.73c.16 0 .23-.07.23-.22l.14-10a.21.21 0 0 0 -.23-.23z"/><path d="m89.81 166.92c-.12 0-.21.05-.27.2l-1.06 2.26-3.91-.5-.46-2.45c0-.16-.08-.24-.2-.26l-.82-.11q-.21 0-.18.21l1.75 10.32a.3.3 0 0 0 .28.27l1.16.15a.3.3 0 0 0 .34-.19l4.29-9.55c.06-.14 0-.23-.12-.24zm-4.1 8.8h-.06l-1-5.8 3.39.43z"/><path d="m79.42 165.22-5-1.36a.2.2 0 0 0 -.28.16l-.15.58a.2.2 0 0 0 .15.29l4 1.08c.11 0 .15.09.12.18l-2.36 8.71a.21.21 0 0 0 .16.28l.71.19a.2.2 0 0 0 .28-.16l2.62-9.67a.2.2 0 0 0 -.25-.28z"/><path d="m63.62 159.39-1.72-.93a2.22 2.22 0 0 0 -3.27 1l-.38.71a.19.19 0 0 0 .1.3l.64.35a.2.2 0 0 0 .31-.09l.35-.66a1.23 1.23 0 0 1 1.88-.59l1.48.79a1.23 1.23 0 0 1 .51 1.89l-2.64 4.84a1.22 1.22 0 0 1 -1.86.6l-1.48-.8a1.23 1.23 0 0 1 -.53-1.89l.36-.66a.2.2 0 0 0 -.09-.31l-.65-.35a.21.21 0 0 0 -.31.09l-.38.7a2.23 2.23 0 0 0 1 3.27l1.72.93a2.36 2.36 0 0 0 1.85.28 2.4 2.4 0 0 0 1.41-1.25l2.69-5a2.38 2.38 0 0 0 .28-1.87 2.41 2.41 0 0 0 -1.27-1.35z"/><path d="m55.72 155.53a2.41 2.41 0 0 0 -1-1.55l-1.57-1.14a2.38 2.38 0 0 0 -1.81-.53 2.43 2.43 0 0 0 -1.56 1.05l-3.33 4.57a2.45 2.45 0 0 0 -.52 1.81 2.43 2.43 0 0 0 1 1.56l1.57 1.14a2.45 2.45 0 0 0 1.8.53 2.41 2.41 0 0 0 1.57-1.06l3.33-4.57a2.39 2.39 0 0 0 .52-1.81zm-1.51 1.15-3.28 4.49a1.22 1.22 0 0 1 -1.92.35l-1.34-1a1.23 1.23 0 0 1 -.28-1.95l3.28-4.49a1.23 1.23 0 0 1 1.93-.34l1.35 1a1.23 1.23 0 0 1 .26 1.94z"/><path d="m47.93 148.72-.5-.51a.19.19 0 0 0 -.31 0l-6.19 6.06v-.05l2.78-6.31a.26.26 0 0 0 0-.35l-.54-.56a.33.33 0 0 0 -.36-.06l-6.32 2.66 6.18-6a.2.2 0 0 0 0-.32l-.5-.51a.19.19 0 0 0 -.32 0l-7.16 7a.21.21 0 0 0 0 .33l.92.94a.18.18 0 0 0 .23.05l6.69-2.81v.06l-3 6.63a.17.17 0 0 0 .05.22l.92 1a.2.2 0 0 0 .32 0l7.16-7a.21.21 0 0 0 -.05-.47z"/><path d="m39.16 139.16-.4-.59a.19.19 0 0 0 -.31 0l-7.19 4.83v-.06l3.88-5.7a.26.26 0 0 0 0-.35l-.43-.65a.32.32 0 0 0 -.34-.12l-6.71 1.46v-.05l7.18-4.82a.21.21 0 0 0 .06-.32l-.4-.59a.21.21 0 0 0 -.32-.07l-8.31 5.59a.2.2 0 0 0 -.07.31l.74 1.1a.18.18 0 0 0 .22.09l7.08-1.54.05.06-4.11 6a.17.17 0 0 0 0 .23l.74 1.1a.19.19 0 0 0 .31.06l8.32-5.58a.21.21 0 0 0 .01-.39z"/><path d="m31.57 128a2.46 2.46 0 0 0 -.15-1.88l-.75-1.64a2.38 2.38 0 0 0 -1.3-1.34 2.42 2.42 0 0 0 -1.88.15l-7.15 3.24c-.13.06-.16.15-.1.29l.3.67a.2.2 0 0 0 .3.1l7.09-3.21a1.23 1.23 0 0 1 1.85.66l.63 1.39a1.23 1.23 0 0 1 -.73 1.82l-7.09 3.21a.2.2 0 0 0 -.12.3l.31.67a.19.19 0 0 0 .3.11l7.14-3.23a2.38 2.38 0 0 0 1.35-1.31z"/><path d="m28.21 118.24-.19-.69a.21.21 0 0 0 -.29-.16l-7.51 2.11v-.06l6.3-6.44a.44.44 0 0 0 .12-.38l-.17-.58a.2.2 0 0 0 -.28-.16l-9.64 2.71a.2.2 0 0 0 -.16.28l.19.69a.2.2 0 0 0 .29.15l7.51-2.1v.06l-6.38 6.47a.26.26 0 0 0 -.05.29l.18.64a.2.2 0 0 0 .28.16l9.64-2.71a.2.2 0 0 0 .16-.28z"/><path d="m25.61 107.32-.12-.73a.2.2 0 0 0 -.26-.19l-9.89 1.6a.21.21 0 0 0 -.19.26l.11.73a.21.21 0 0 0 .27.19l9.89-1.56a.21.21 0 0 0 .19-.3z"/><path d="m15.55 103.37-.13-2.21a.14.14 0 0 1 .14-.17l9-.51a.2.2 0 0 0 .21-.24v-.73c0-.16-.09-.23-.24-.22l-9 .51q-.15 0-.15-.15l-.13-2.21c0-.16-.09-.24-.24-.23h-.59c-.15 0-.22.09-.21.26l.34 5.93c0 .16.09.24.24.23h.58a.21.21 0 0 0 .18-.26z"/><path d="m14.4 93.6 6.51-2.6 3.69.28a.2.2 0 0 0 .24-.21l.06-.74a.2.2 0 0 0 -.21-.24l-3.69-.3-6.06-3.56c-.16-.1-.24-.06-.25.12l-.07.93c0 .13.06.22.21.28l4.75 2.66v.09l-5.09 2c-.16 0-.24.14-.25.26l-.06.9a.15.15 0 0 0 .05.15s.09 0 .17-.02z"/><path d="m19.11 68.72 9.42 3.41a.2.2 0 0 0 .29-.12l.15-.42a.2.2 0 0 0 -.14-.29l-9.42-3.4a.2.2 0 0 0 -.29.13l-.15.42c-.05.13.03.22.14.27z"/><path d="m104.29 72.85a1.06 1.06 0 0 0 -.66-1 1 1 0 0 0 -.42-.09h-48.82a1.08 1.08 0 0 0 -1 1.44l5.25 14.8a1.08 1.08 0 0 0 1 .72h27.75v43.14a1.07 1.07 0 0 0 1.08 1.07h14.74a1.08 1.08 0 0 0 1.08-1.07v-44.27z"/><rect height="16.9" rx="1.08" width="18.12" x="120.7" y="71.77"/></g></svg>