<svg xmlns="http://www.w3.org/2000/svg" viewBox="0 0 480.62 130.67"><title>stream-nega</title><polygon points="89.02 23.01 153.5 23.01 156.26 2.13 154.89 0 89.83 0 87.1 20.65 89.02 23.01" style="fill:#fff"/><polygon points="229.04 51.52 231.73 54.73 251.63 54.73 251.63 54.73 277.65 54.73 278.07 51.52 280.69 31.73 231.66 31.73 229.04 51.52" style="fill:#fff"/><polygon points="385.55 0 374.12 86.46 397.12 86.46 405.51 23.01 416.36 23.01 418.81 4.5 415.17 0 385.55 0" style="fill:#fff"/><polygon points="457.61 0 457.61 0 438.21 0 419.74 23.01 419.74 23.01 419.74 23.01 411.35 86.46 430.69 86.46 434.9 82.3 442.74 23.01 454.57 23.01 446.18 86.46 465.52 86.46 469.74 82.28 480.62 0 457.61 0" style="fill:#fff"/><polygon points="352.19 0.01 339.04 31.73 346.72 86.46 369.72 86.46 357.6 0.01 352.19 0.01" style="fill:#fff"/><polygon points="334.59 0.01 327.78 0.01 324.75 0.01 289.76 86.46 312.76 86.46 313.67 84.23 347.75 0.01 334.59 0.01" style="fill:#fff"/><polygon points="224.42 86.45 227.29 86.45 227.29 86.45 285.53 86.45 288.57 63.45 227.47 63.45 224.42 86.45" style="fill:#fff"/><polygon points="175.57 38.57 159.92 52.4 159.05 57.02 184.59 86.45 217.13 86.45 175.57 38.57" style="fill:#fff"/><polygon points="178.84 35.66 191.28 49.91 195.25 49.9 225.46 23.12 225.36 23.01 225.47 23.01 213.08 0 161.79 0 159.05 20.78 160.91 23.01 193.12 23.01 178.84 35.66" style="fill:#fff"/><polygon points="100.25 86.45 123.25 86.45 131.11 27.03 108.11 27.03 100.25 86.45" style="fill:#fff"/><polygon points="34.55 43.23 37.23 23.01 80.94 23.01 83.98 0 17.26 0 14.22 23.01 32.73 43.23 34.55 43.23" style="fill:#fff"/><polygon points="55.26 43.23 52.58 63.45 8.87 63.45 5.83 86.45 72.55 86.45 75.59 63.45 57.08 43.23 55.26 43.23" style="fill:#fff"/><polygon points="294.07 0 235.86 0 232.81 23.01 232.25 27.25 255.26 27.25 255.82 23.01 293.92 23.01 296.55 3.08 294.07 0" style="fill:#fff"/><path d="M21.22,315.33a16.68,16.68,0,0,1-6.83-1.28,12.38,12.38,0,0,1-4.7-3.5l3.89-4.29A11.13,11.13,0,0,0,17.31,309a10.15,10.15,0,0,0,4.14.89,5.39,5.39,0,0,0,3.66-1.08,3.86,3.86,0,0,0,1.25-3.11,3.2,3.2,0,0,0-1-2.52A6.43,6.43,0,0,0,22.16,302l-3.26-.54c-2.8-.47-4.83-1.51-6.08-3.1a9.14,9.14,0,0,1-1.88-5.83,8.63,8.63,0,0,1,3-7q3-2.48,8.27-2.48a16.34,16.34,0,0,1,6.3,1.11,11.36,11.36,0,0,1,4.34,3L29,291.42a8.81,8.81,0,0,0-6.79-2.95q-4.52,0-4.52,3.74a3,3,0,0,0,1,2.44A7.37,7.37,0,0,0,22,295.87l3.27.58a10.14,10.14,0,0,1,5.85,2.86,8.24,8.24,0,0,1,2.06,5.89,10.68,10.68,0,0,1-.76,4,8.74,8.74,0,0,1-2.28,3.21,10.7,10.7,0,0,1-3.73,2.12A15.86,15.86,0,0,1,21.22,315.33Z" transform="translate(-9.69 -184.67)" style="fill:#fff"/><path d="M55.69,289.1v25.7H49V289.1H40v-5.5H64.67v5.5Z" transform="translate(-9.69 -184.67)" style="fill:#fff"/><path d="M89,314.8l-2-7.51H78.48l-1.92,7.51H69.77l8.44-31.2h9.48l8.45,31.2Zm-6-24.72h-.36l-3,11.8H86Z" transform="translate(-9.69 -184.67)" style="fill:#fff"/><path d="M110.17,314.8h-6.61V283.6h12.06a11.2,11.2,0,0,1,4.07.69,8.21,8.21,0,0,1,3,2,8.32,8.32,0,0,1,1.85,3.13,12.58,12.58,0,0,1,.63,4.11,10.81,10.81,0,0,1-1.43,5.68,6.8,6.8,0,0,1-4.07,3.13l6.12,12.47h-7.32l-5.23-11.58h-3.09ZM114,298a4.68,4.68,0,0,0,3.29-.9,4,4,0,0,0,.92-2.95v-1.34a4,4,0,0,0-.92-3A4.73,4.73,0,0,0,114,289h-3.84v9Z" transform="translate(-9.69 -184.67)" style="fill:#fff"/><path d="M147.54,289.1v25.7h-6.71V289.1h-9v-5.5h24.67v5.5Z" transform="translate(-9.69 -184.67)" style="fill:#fff"/><path d="M170.55,283.6v19.75c0,1,0,1.89.12,2.71a5.81,5.81,0,0,0,.53,2.08,3.13,3.13,0,0,0,1.28,1.32,6.08,6.08,0,0,0,4.64,0,3.07,3.07,0,0,0,1.28-1.32,6,6,0,0,0,.54-2.08c.07-.82.11-1.72.11-2.71V283.6h6.7v18.86a33.17,33.17,0,0,1-.42,5.63,9.48,9.48,0,0,1-1.63,4,7.34,7.34,0,0,1-3.36,2.41,19.58,19.58,0,0,1-11.08,0,7.25,7.25,0,0,1-3.35-2.41,9.24,9.24,0,0,1-1.63-4,32.09,32.09,0,0,1-.43-5.63V283.6Z" transform="translate(-9.69 -184.67)" style="fill:#fff"/><path d="M195.41,314.8V283.6h12.06a11.2,11.2,0,0,1,4.07.69,8.21,8.21,0,0,1,3,2,8.32,8.32,0,0,1,1.85,3.13,13.72,13.72,0,0,1,0,8.22,8.32,8.32,0,0,1-1.85,3.13,8.09,8.09,0,0,1-3,2,11.2,11.2,0,0,1-4.07.69h-5.31V314.8ZM202.16,298h3.62a4.65,4.65,0,0,0,3.28-.9,4,4,0,0,0,.92-2.95v-1.34a4,4,0,0,0-.92-3,4.7,4.7,0,0,0-3.28-.89h-3.62Z" transform="translate(-9.69 -184.67)" style="fill:#fff"/><path d="M235.06,314.79V283.6h20.7v5.5h-14v7.15h12.51v5.5H241.77v13Z" transform="translate(-9.69 -184.67)" style="fill:#f77a2c"/><path d="M265.68,314.79V283.6h19.94v5.5H272.38v7.15h12.79v5.5H272.38v7.55h13.24v5.49Z" transform="translate(-9.69 -184.67)" style="fill:#f77a2c"/><path d="M305.64,315.33a16.93,16.93,0,0,1-6.84-1.28,12.34,12.34,0,0,1-4.69-3.5l3.89-4.29a11,11,0,0,0,3.73,2.77,10.07,10.07,0,0,0,4.13.89,5.43,5.43,0,0,0,3.67-1.08,3.9,3.9,0,0,0,1.25-3.11,3.24,3.24,0,0,0-1-2.53,6.52,6.52,0,0,0-3.24-1.21l-3.27-.54c-2.8-.47-4.82-1.51-6.07-3.1a9.14,9.14,0,0,1-1.88-5.83,8.6,8.6,0,0,1,2.95-7c2-1.65,4.72-2.48,8.27-2.48a16.42,16.42,0,0,1,6.3,1.11,11.44,11.44,0,0,1,4.34,3l-3.8,4.24a8.81,8.81,0,0,0-6.8-2.95q-4.51,0-4.51,3.74a3,3,0,0,0,1,2.44,7.42,7.42,0,0,0,3.29,1.22l3.26.58a10.17,10.17,0,0,1,5.86,2.86,8.24,8.24,0,0,1,2.05,5.89,10.49,10.49,0,0,1-.76,4,8.6,8.6,0,0,1-2.28,3.21,10.52,10.52,0,0,1-3.73,2.12A15.76,15.76,0,0,1,305.64,315.33Z" transform="translate(-9.69 -184.67)" style="fill:#f77a2c"/><path d="M340.1,289.1v25.69h-6.7V289.1h-9v-5.5h24.67v5.5Z" transform="translate(-9.69 -184.67)" style="fill:#f77a2c"/><path d="M357.31,314.79v-5H364V288.56h-6.7v-5h20.11v5h-6.7v21.28h6.7v5Z" transform="translate(-9.69 -184.67)" style="fill:#f77a2c"/><path d="M393.24,314.79,385,283.6h7.46l3.66,15.86,1.84,9h.36l1.87-9,3.71-15.86H411l-8.27,31.19Z" transform="translate(-9.69 -184.67)" style="fill:#f77a2c"/><path d="M434.63,314.79l-2-7.5h-8.54l-1.92,7.5h-6.8l8.45-31.19h9.48l8.45,31.19Zm-6-24.71h-.36l-3,11.8h6.44Z" transform="translate(-9.69 -184.67)" style="fill:#f77a2c"/><path d="M449.92,314.79V283.6h6.75v25.7h13.41v5.49Z" transform="translate(-9.69 -184.67)" style="fill:#f77a2c"/></svg>