<svg id="Layer_1" data-name="Layer 1" xmlns="http://www.w3.org/2000/svg" viewBox="0 0 943.85 293.19"><defs><style>.cls-1{fill:#fff;}.cls-2{fill:#bd316c;}</style></defs><title>stream-logo-nega</title><polygon class="cls-1" points="165.37 45.73 293.56 45.73 299.05 4.23 296.31 0 166.98 0 161.55 41.05 165.37 45.73"/><polygon class="cls-1" points="443.74 102.43 449.07 108.8 488.62 108.8 540.36 108.8 541.2 102.43 546.41 63.06 448.94 63.06 443.74 102.43"/><polygon class="cls-1" points="754.86 0 732.13 171.88 777.86 171.88 794.54 45.74 816.12 45.74 820.98 8.95 813.74 0 754.86 0"/><polygon class="cls-1" points="898.11 0 898.11 0 859.56 0 822.83 45.74 822.83 45.74 822.83 45.74 806.14 171.88 844.6 171.88 852.98 163.61 868.56 45.74 892.07 45.74 875.39 171.88 913.84 171.88 922.21 163.58 943.85 0 898.11 0"/><polygon class="cls-1" points="688.54 0.01 662.4 63.06 677.66 171.87 723.4 171.87 699.29 0.01 688.54 0.01"/><polygon class="cls-1" points="653.56 0.01 640.02 0.01 633.99 0.01 564.43 171.87 610.16 171.87 611.96 167.44 679.73 0.01 653.56 0.01"/><polygon class="cls-1" points="434.55 171.87 440.26 171.87 556.02 171.87 562.07 126.13 440.6 126.13 434.55 171.87"/><polygon class="cls-1" points="337.44 76.68 306.32 104.17 304.59 113.35 355.36 171.86 420.04 171.86 337.44 76.68"/><polygon class="cls-1" points="343.93 70.9 368.66 99.22 376.55 99.19 436.6 45.96 436.41 45.73 436.63 45.73 412 0 310.05 0 304.59 41.32 308.29 45.73 372.32 45.73 343.93 70.9"/><polygon class="cls-1" points="187.7 171.87 233.43 171.87 249.06 53.74 203.32 53.74 187.7 171.87"/><polygon class="cls-1" points="57.1 85.93 62.41 45.73 149.31 45.73 155.35 0 22.73 0 16.68 45.73 53.48 85.93 57.1 85.93"/><polygon class="cls-1" points="98.26 85.93 92.94 126.14 6.05 126.14 0 171.87 132.63 171.87 138.68 126.14 101.88 85.93 98.26 85.93"/><polygon class="cls-1" points="573.01 0 457.28 0 451.23 45.73 450.12 54.16 495.85 54.16 496.96 45.73 572.71 45.73 577.94 6.11 573.01 0"/><polygon class="cls-2" points="248.46 292.17 248.46 232.45 288.08 232.45 288.08 242.97 261.3 242.97 261.3 256.65 285.26 256.65 285.26 267.18 261.3 267.18 261.3 292.17 248.46 292.17"/><polygon class="cls-2" points="305.6 292.17 305.6 232.45 343.77 232.45 343.77 242.97 318.44 242.97 318.44 256.65 342.91 256.65 342.91 267.18 318.44 267.18 318.44 281.64 343.77 281.64 343.77 292.17 305.6 292.17"/><path class="cls-2" d="M412.16,322.12a32.15,32.15,0,0,1-13.09-2.46,23.37,23.37,0,0,1-9-6.71l7.44-8.2a21.07,21.07,0,0,0,7.15,5.31,19.47,19.47,0,0,0,7.91,1.71c3.08,0,5.42-.7,7-2.07a7.45,7.45,0,0,0,2.4-6,6.11,6.11,0,0,0-1.84-4.83c-1.22-1.1-3.29-1.87-6.2-2.33l-6.25-1q-8-1.37-11.64-5.94a17.51,17.51,0,0,1-3.58-11.15q0-8.64,5.64-13.37T414,260.34A31.31,31.31,0,0,1,426,262.47a21.65,21.65,0,0,1,8.31,5.77l-7.28,8.1a16.87,16.87,0,0,0-13-5.64q-8.64,0-8.64,7.16a5.64,5.64,0,0,0,1.93,4.67,14.24,14.24,0,0,0,6.29,2.33l6.24,1.11c4.85.86,8.59,2.67,11.21,5.47S435,298,435,302.72a20.15,20.15,0,0,1-1.46,7.73,16.64,16.64,0,0,1-4.36,6.16,20.55,20.55,0,0,1-7.14,4.06,30.49,30.49,0,0,1-9.89,1.45" transform="translate(-30.2 -28.93)"/><polygon class="cls-2" points="449.09 242.97 449.09 292.17 436.25 292.17 436.25 242.97 419.05 242.97 419.05 232.45 466.28 232.45 466.28 242.97 449.09 242.97"/><polygon class="cls-2" points="482.19 292.17 482.19 282.67 495.03 282.67 495.03 241.94 482.19 241.94 482.19 232.45 520.7 232.45 520.7 241.94 507.86 241.94 507.86 282.67 520.7 282.67 520.7 292.17 482.19 292.17"/><polygon class="cls-2" points="551.79 292.17 535.95 232.45 550.25 232.45 557.26 262.81 560.77 280.02 561.46 280.02 565.05 262.81 572.15 232.45 585.76 232.45 569.93 292.17 551.79 292.17"/><path class="cls-2" d="M659.49,321.1l-3.77-14.38H639.38L635.7,321.1h-13l16.17-59.73H657l16.17,59.73Zm-11.55-47.32h-.69l-5.82,22.58h12.33Z" transform="translate(-30.2 -28.93)"/><polygon class="cls-2" points="658.75 292.17 658.75 232.45 671.67 232.45 671.67 281.64 697.34 281.64 697.34 292.17 658.75 292.17"/></svg>